<mxfile host="app.diagrams.net" agent="Mozilla/5.0 (Windows NT 10.0; Win64; x64) AppleWebKit/537.36 (KHTML, like Gecko) Chrome/134.0.0.0 Safari/537.36 Edg/134.0.0.0" version="26.1.3">
  <diagram name="Page-1" id="13e1069c-82ec-6db2-03f1-153e76fe0fe0">
    <mxGraphModel dx="1042" dy="531" grid="1" gridSize="10" guides="1" tooltips="1" connect="1" arrows="1" fold="1" page="1" pageScale="1" pageWidth="1100" pageHeight="850" background="none" math="0" shadow="0">
      <root>
        <mxCell id="0" />
        <mxCell id="1" parent="0" />
        <mxCell id="7baba1c4bc27f4b0-2" value=":GamePVE" style="shape=umlLifeline;perimeter=lifelinePerimeter;whiteSpace=wrap;html=1;container=1;collapsible=0;recursiveResize=0;outlineConnect=0;rounded=1;shadow=0;comic=0;labelBackgroundColor=none;strokeWidth=1;fontFamily=Verdana;fontSize=12;align=center;" parent="1" vertex="1">
          <mxGeometry x="351" y="80" width="100" height="1080" as="geometry" />
        </mxCell>
        <mxCell id="Dxs4eGZUE9kq6_3LvPg3-11" value="" style="html=1;points=[];perimeter=orthogonalPerimeter;rounded=0;shadow=0;comic=0;labelBackgroundColor=none;strokeWidth=1;fontFamily=Verdana;fontSize=12;align=center;" vertex="1" parent="7baba1c4bc27f4b0-2">
          <mxGeometry x="45" y="280" width="10" height="140" as="geometry" />
        </mxCell>
        <mxCell id="7baba1c4bc27f4b0-4" value=":Board" style="shape=umlLifeline;perimeter=lifelinePerimeter;whiteSpace=wrap;html=1;container=1;collapsible=0;recursiveResize=0;outlineConnect=0;rounded=1;shadow=0;comic=0;labelBackgroundColor=none;strokeWidth=1;fontFamily=Verdana;fontSize=12;align=center;" parent="1" vertex="1">
          <mxGeometry x="528" y="80" width="100" height="1070" as="geometry" />
        </mxCell>
        <mxCell id="7baba1c4bc27f4b0-10" value="" style="html=1;points=[];perimeter=orthogonalPerimeter;rounded=0;shadow=0;comic=0;labelBackgroundColor=none;strokeWidth=1;fontFamily=Verdana;fontSize=12;align=center;" parent="7baba1c4bc27f4b0-4" vertex="1">
          <mxGeometry x="45" y="170" width="10" height="20" as="geometry" />
        </mxCell>
        <mxCell id="7baba1c4bc27f4b0-5" value=":Piece" style="shape=umlLifeline;perimeter=lifelinePerimeter;whiteSpace=wrap;html=1;container=1;collapsible=0;recursiveResize=0;outlineConnect=0;rounded=1;shadow=0;comic=0;labelBackgroundColor=none;strokeWidth=1;fontFamily=Verdana;fontSize=12;align=center;" parent="1" vertex="1">
          <mxGeometry x="723" y="80" width="100" height="880" as="geometry" />
        </mxCell>
        <mxCell id="7baba1c4bc27f4b0-6" value=":Object" style="shape=umlLifeline;perimeter=lifelinePerimeter;whiteSpace=wrap;html=1;container=1;collapsible=0;recursiveResize=0;outlineConnect=0;rounded=1;shadow=0;comic=0;labelBackgroundColor=none;strokeWidth=1;fontFamily=Verdana;fontSize=12;align=center;" parent="1" vertex="1">
          <mxGeometry x="863" y="80" width="100" height="580" as="geometry" />
        </mxCell>
        <mxCell id="7baba1c4bc27f4b0-7" value=":Object" style="shape=umlLifeline;perimeter=lifelinePerimeter;whiteSpace=wrap;html=1;container=1;collapsible=0;recursiveResize=0;outlineConnect=0;rounded=1;shadow=0;comic=0;labelBackgroundColor=none;strokeWidth=1;fontFamily=Verdana;fontSize=12;align=center;" parent="1" vertex="1">
          <mxGeometry x="1003" y="80" width="100" height="580" as="geometry" />
        </mxCell>
        <mxCell id="7baba1c4bc27f4b0-8" value=":WinGamePVE" style="shape=umlLifeline;perimeter=lifelinePerimeter;whiteSpace=wrap;html=1;container=1;collapsible=0;recursiveResize=0;outlineConnect=0;rounded=1;shadow=0;comic=0;labelBackgroundColor=none;strokeWidth=1;fontFamily=Verdana;fontSize=12;align=center;" parent="1" vertex="1">
          <mxGeometry x="147" y="80" width="100" height="1010" as="geometry" />
        </mxCell>
        <mxCell id="7baba1c4bc27f4b0-9" value="" style="html=1;points=[];perimeter=orthogonalPerimeter;rounded=0;shadow=0;comic=0;labelBackgroundColor=none;strokeWidth=1;fontFamily=Verdana;fontSize=12;align=center;" parent="7baba1c4bc27f4b0-8" vertex="1">
          <mxGeometry x="45" y="100" width="10" height="620" as="geometry" />
        </mxCell>
        <mxCell id="7baba1c4bc27f4b0-45" value="Note" style="shape=note;whiteSpace=wrap;html=1;size=14;verticalAlign=top;align=left;spacingTop=-6;rounded=0;shadow=0;comic=0;labelBackgroundColor=none;strokeWidth=1;fontFamily=Verdana;fontSize=12" parent="1" vertex="1">
          <mxGeometry x="863" y="30" width="100" height="35" as="geometry" />
        </mxCell>
        <mxCell id="7baba1c4bc27f4b0-46" value="Note" style="shape=note;whiteSpace=wrap;html=1;size=14;verticalAlign=top;align=left;spacingTop=-6;rounded=0;shadow=0;comic=0;labelBackgroundColor=none;strokeWidth=1;fontFamily=Verdana;fontSize=12" parent="1" vertex="1">
          <mxGeometry x="1003" y="30" width="100" height="35" as="geometry" />
        </mxCell>
        <mxCell id="Dxs4eGZUE9kq6_3LvPg3-1" value="if turn == player&amp;nbsp;" style="shape=umlFrame;whiteSpace=wrap;html=1;pointerEvents=0;width=110;height=20;" vertex="1" parent="1">
          <mxGeometry x="20" y="140" width="1020" height="1250" as="geometry" />
        </mxCell>
        <mxCell id="Dxs4eGZUE9kq6_3LvPg3-2" value="" style="html=1;points=[];perimeter=orthogonalPerimeter;rounded=0;shadow=0;comic=0;labelBackgroundColor=none;strokeWidth=1;fontFamily=Verdana;fontSize=12;align=center;" vertex="1" parent="1">
          <mxGeometry x="197" y="209" width="10" height="351" as="geometry" />
        </mxCell>
        <mxCell id="Dxs4eGZUE9kq6_3LvPg3-3" value="select(x, y)" style="html=1;verticalAlign=bottom;endArrow=block;labelBackgroundColor=none;fontFamily=Verdana;fontSize=12;elbow=vertical;edgeStyle=orthogonalEdgeStyle;curved=1;entryX=1;entryY=0.286;entryPerimeter=0;exitX=1.038;exitY=0.345;exitPerimeter=0;" edge="1" parent="1">
          <mxGeometry x="-0.2335" y="10" relative="1" as="geometry">
            <mxPoint x="203.33333333333348" y="190" as="sourcePoint" />
            <mxPoint x="208.33333333333348" y="228.33333333333337" as="targetPoint" />
            <Array as="points">
              <mxPoint x="258" y="190" />
              <mxPoint x="258" y="228" />
            </Array>
            <mxPoint as="offset" />
          </mxGeometry>
        </mxCell>
        <mxCell id="Dxs4eGZUE9kq6_3LvPg3-4" value="reset_displayed_move()" style="html=1;verticalAlign=bottom;endArrow=block;labelBackgroundColor=none;fontFamily=Verdana;fontSize=12;elbow=vertical;entryX=-0.14;entryY=0.52;entryDx=0;entryDy=0;entryPerimeter=0;" edge="1" parent="1" target="7baba1c4bc27f4b0-10">
          <mxGeometry relative="1" as="geometry">
            <mxPoint x="207" y="260" as="sourcePoint" />
            <mxPoint x="550" y="261" as="targetPoint" />
          </mxGeometry>
        </mxCell>
        <mxCell id="Dxs4eGZUE9kq6_3LvPg3-5" value="if selection is Men" style="shape=umlFrame;whiteSpace=wrap;html=1;pointerEvents=0;width=110;height=20;" vertex="1" parent="1">
          <mxGeometry x="30" y="285" width="940" height="55" as="geometry" />
        </mxCell>
        <mxCell id="Dxs4eGZUE9kq6_3LvPg3-8" value="elif selection is Move" style="shape=umlFrame;whiteSpace=wrap;html=1;pointerEvents=0;width=120;height=20;" vertex="1" parent="1">
          <mxGeometry x="30" y="340" width="940" height="1040" as="geometry" />
        </mxCell>
        <mxCell id="Dxs4eGZUE9kq6_3LvPg3-10" value="display_move(selection)" style="html=1;verticalAlign=bottom;endArrow=block;labelBackgroundColor=none;fontFamily=Verdana;fontSize=12;elbow=vertical;entryX=0;entryY=0.58;entryDx=0;entryDy=0;entryPerimeter=0;exitX=1.22;exitY=0.317;exitDx=0;exitDy=0;exitPerimeter=0;" edge="1" parent="1" source="Dxs4eGZUE9kq6_3LvPg3-2" target="Dxs4eGZUE9kq6_3LvPg3-15">
          <mxGeometry relative="1" as="geometry">
            <mxPoint x="207" y="326" as="sourcePoint" />
            <mxPoint x="372" y="326" as="targetPoint" />
          </mxGeometry>
        </mxCell>
        <mxCell id="Dxs4eGZUE9kq6_3LvPg3-12" value="process(selection)" style="html=1;verticalAlign=bottom;endArrow=block;labelBackgroundColor=none;fontFamily=Verdana;fontSize=12;elbow=vertical;" edge="1" parent="1">
          <mxGeometry relative="1" as="geometry">
            <mxPoint x="207" y="365" as="sourcePoint" />
            <mxPoint x="400" y="365" as="targetPoint" />
          </mxGeometry>
        </mxCell>
        <mxCell id="Dxs4eGZUE9kq6_3LvPg3-14" value="If selection is Capture" style="shape=umlFrame;whiteSpace=wrap;html=1;pointerEvents=0;width=130;height=20;" vertex="1" parent="1">
          <mxGeometry x="240" y="390" width="720" height="980" as="geometry" />
        </mxCell>
        <mxCell id="Dxs4eGZUE9kq6_3LvPg3-15" value="" style="html=1;points=[];perimeter=orthogonalPerimeter;rounded=0;shadow=0;comic=0;labelBackgroundColor=none;strokeWidth=1;fontFamily=Verdana;fontSize=12;align=center;" vertex="1" parent="1">
          <mxGeometry x="573" y="308" width="10" height="20" as="geometry" />
        </mxCell>
        <mxCell id="Dxs4eGZUE9kq6_3LvPg3-16" value="" style="html=1;points=[];perimeter=orthogonalPerimeter;rounded=0;shadow=0;comic=0;labelBackgroundColor=none;strokeWidth=1;fontFamily=Verdana;fontSize=12;align=center;" vertex="1" parent="1">
          <mxGeometry x="573" y="415" width="10" height="385" as="geometry" />
        </mxCell>
        <mxCell id="Dxs4eGZUE9kq6_3LvPg3-17" value="capture(selection)" style="html=1;verticalAlign=bottom;endArrow=block;labelBackgroundColor=none;fontFamily=Verdana;fontSize=12;elbow=vertical;" edge="1" parent="1">
          <mxGeometry relative="1" as="geometry">
            <mxPoint x="413" y="425" as="sourcePoint" />
            <mxPoint x="573" y="425" as="targetPoint" />
          </mxGeometry>
        </mxCell>
        <mxCell id="Dxs4eGZUE9kq6_3LvPg3-18" value="" style="html=1;points=[];perimeter=orthogonalPerimeter;rounded=0;shadow=0;comic=0;labelBackgroundColor=none;strokeWidth=1;fontFamily=Verdana;fontSize=12;align=center;" vertex="1" parent="1">
          <mxGeometry x="579" y="459" width="10" height="31" as="geometry" />
        </mxCell>
        <mxCell id="Dxs4eGZUE9kq6_3LvPg3-19" value="reset_displayed_moves()" style="html=1;verticalAlign=bottom;endArrow=block;labelBackgroundColor=none;fontFamily=Verdana;fontSize=12;elbow=vertical;edgeStyle=orthogonalEdgeStyle;curved=1;entryX=1;entryY=0.286;entryPerimeter=0;exitX=1.038;exitY=0.345;exitPerimeter=0;" edge="1" parent="1">
          <mxGeometry x="-0.2335" y="23" relative="1" as="geometry">
            <mxPoint x="585.3333333333335" y="440" as="sourcePoint" />
            <mxPoint x="590.3333333333335" y="478.33333333333337" as="targetPoint" />
            <Array as="points">
              <mxPoint x="640" y="440" />
              <mxPoint x="640" y="478" />
            </Array>
            <mxPoint as="offset" />
          </mxGeometry>
        </mxCell>
        <mxCell id="Dxs4eGZUE9kq6_3LvPg3-20" value="" style="html=1;points=[];perimeter=orthogonalPerimeter;rounded=0;shadow=0;comic=0;labelBackgroundColor=none;strokeWidth=1;fontFamily=Verdana;fontSize=12;align=center;" vertex="1" parent="1">
          <mxGeometry x="579" y="528" width="10" height="31" as="geometry" />
        </mxCell>
        <mxCell id="Dxs4eGZUE9kq6_3LvPg3-21" value="set_stone(row, col)" style="html=1;verticalAlign=bottom;endArrow=block;labelBackgroundColor=none;fontFamily=Verdana;fontSize=12;elbow=vertical;edgeStyle=orthogonalEdgeStyle;curved=1;entryX=1;entryY=0.286;entryPerimeter=0;exitX=1.038;exitY=0.345;exitPerimeter=0;" edge="1" parent="1">
          <mxGeometry x="-0.2335" y="23" relative="1" as="geometry">
            <mxPoint x="585.3333333333335" y="509" as="sourcePoint" />
            <mxPoint x="590.3333333333335" y="547.3333333333334" as="targetPoint" />
            <Array as="points">
              <mxPoint x="640" y="509" />
              <mxPoint x="640" y="547" />
            </Array>
            <mxPoint as="offset" />
          </mxGeometry>
        </mxCell>
        <mxCell id="Dxs4eGZUE9kq6_3LvPg3-22" value="" style="html=1;points=[];perimeter=orthogonalPerimeter;rounded=0;shadow=0;comic=0;labelBackgroundColor=none;strokeWidth=1;fontFamily=Verdana;fontSize=12;align=center;" vertex="1" parent="1">
          <mxGeometry x="579" y="597" width="10" height="53" as="geometry" />
        </mxCell>
        <mxCell id="Dxs4eGZUE9kq6_3LvPg3-23" value="move(selection)" style="html=1;verticalAlign=bottom;endArrow=block;labelBackgroundColor=none;fontFamily=Verdana;fontSize=12;elbow=vertical;edgeStyle=orthogonalEdgeStyle;curved=1;entryX=1;entryY=0.286;entryPerimeter=0;exitX=1.038;exitY=0.345;exitPerimeter=0;" edge="1" parent="1">
          <mxGeometry x="-0.2335" y="23" relative="1" as="geometry">
            <mxPoint x="585.3333333333335" y="578" as="sourcePoint" />
            <mxPoint x="590.3333333333335" y="616.3333333333334" as="targetPoint" />
            <Array as="points">
              <mxPoint x="640" y="578" />
              <mxPoint x="640" y="616" />
            </Array>
            <mxPoint as="offset" />
          </mxGeometry>
        </mxCell>
        <mxCell id="Dxs4eGZUE9kq6_3LvPg3-24" value="" style="html=1;points=[];perimeter=orthogonalPerimeter;rounded=0;shadow=0;comic=0;labelBackgroundColor=none;strokeWidth=1;fontFamily=Verdana;fontSize=12;align=center;" vertex="1" parent="1">
          <mxGeometry x="768" y="628.5" width="10" height="20" as="geometry" />
        </mxCell>
        <mxCell id="Dxs4eGZUE9kq6_3LvPg3-25" value="move(row, col)" style="html=1;verticalAlign=bottom;endArrow=block;labelBackgroundColor=none;fontFamily=Verdana;fontSize=12;elbow=vertical;entryX=-0.14;entryY=0.52;entryDx=0;entryDy=0;entryPerimeter=0;" edge="1" parent="1" target="Dxs4eGZUE9kq6_3LvPg3-24">
          <mxGeometry relative="1" as="geometry">
            <mxPoint x="590" y="639" as="sourcePoint" />
            <mxPoint x="745" y="639.5" as="targetPoint" />
          </mxGeometry>
        </mxCell>
      </root>
    </mxGraphModel>
  </diagram>
</mxfile>
